<svg xmlns="http://www.w3.org/2000/svg" viewBox="0 0 120 120" role="img" aria-label="Team India Records">
  <defs>
    <linearGradient id="saffron" x1="0%" y1="0%" x2="100%" y2="100%">
      <stop offset="0%" stop-color="#FF9933"/>
      <stop offset="100%" stop-color="#E87800"/>
    </linearGradient>
  </defs>
  <!-- Navy shield -->
  <path d="M60 8 L104 28 V62 C104 88 84 104 60 112 C36 104 16 88 16 62 V28 Z" fill="#071428" stroke="#FF9933" stroke-width="3"/>
  <!-- Saffron inner ring -->
  <path d="M60 18 L94 34 V60 C94 80 78 92 60 98 C42 92 26 80 26 60 V34 Z" fill="none" stroke="url(#saffron)" stroke-width="2" opacity="0.85"/>
  <!-- Stumps -->
  <rect x="52" y="42" width="3.5" height="28" rx="1" fill="#F5F5F0"/>
  <rect x="58.25" y="42" width="3.5" height="28" rx="1" fill="#F5F5F0"/>
  <rect x="64.5" y="42" width="3.5" height="28" rx="1" fill="#F5F5F0"/>
  <rect x="50" y="40" width="20" height="3" rx="1.5" fill="#FF9933"/>
  <!-- Ball arc -->
  <path d="M72 58 C78 52 84 56 82 62 C80 68 72 66 72 58 Z" fill="none" stroke="#FF9933" stroke-width="2"/>
  <!-- IND wordmark -->
  <text x="60" y="88" text-anchor="middle" font-family="system-ui, -apple-system, 'Segoe UI', sans-serif" font-size="16" font-weight="800" letter-spacing="0.12em" fill="#FF9933">IND</text>
</svg>
